<svg id="Calque_1" data-name="Calque 1" xmlns="http://www.w3.org/2000/svg" viewBox="0 0 388.11 189.86"><defs><style>.cls-1{fill:#e02f2e;}.cls-2{fill:#fff;}</style></defs><title>logo</title><path class="cls-1" d="M155.44,128.38l-18.55-10.64,15.6-9.36a5.08,5.08,0,0,0,1.84-7.07,5,5,0,0,0-7-1.67l-20.8,12.27-7.08-4.09a39.83,39.83,0,0,0,.06-30.25l6.9-4L147.31,85.7a4.07,4.07,0,0,0,2.42.75A5.64,5.64,0,0,0,154.28,84c1.39-2.52.63-5.86-1.88-7.06l-15.66-9.26,18.48-10.75a5.23,5.23,0,0,0,1.84-7.07A5.14,5.14,0,0,0,150,48L131.3,58.87,131,40.26a5.16,5.16,0,0,0-5.14-5.19,5.23,5.23,0,0,0-5.11,5.22L121,64.91l-6.48,3.78a39.76,39.76,0,0,0-26.3-15.47l0-8,20.62-11.84a5.22,5.22,0,0,0,2-7,5,5,0,0,0-7-1.84L88.13,33.47l-.06-21a5.18,5.18,0,0,0-5.2-5.16,5.1,5.1,0,0,0-5.08,5.19l.06,21.18L61.39,24.57a5,5,0,0,0-6.9,1.89,5.12,5.12,0,0,0,2,7.06L77.88,45.46l0,7.67a39.73,39.73,0,0,0-26.78,15.3l-7-4,.11-24a5,5,0,0,0-5.06-5.18h-.15S34,37.67,34,40.55l.05,18.06L15.65,48.25a5,5,0,0,0-7,1.87,5.16,5.16,0,0,0,1.88,7.08L28.92,67.74l-16,9.63a5,5,0,0,0-1.75,7.07,4.79,4.79,0,0,0,4.38,2.41,5,5,0,0,0,2.69-.76L39.17,73.66l6.73,3.83a39.86,39.86,0,0,0,.25,30.87l-6.86,4L18.32,100a5.06,5.06,0,0,0-7.06,1.71A5.22,5.22,0,0,0,13,108.81l16,9.44L10.78,129a5.1,5.1,0,0,0-1.84,7.09,4.75,4.75,0,0,0,4.38,2.59,9.32,9.32,0,0,0,2.6-.76l18.13-10.47.05,18.06c.2,2.88,5.29,5.08,5.29,5.08h.22a5.1,5.1,0,0,0,5-5.31l-.26-24,7.06-4.06a39.73,39.73,0,0,0,26.71,14.93l0,8L57,152.15a5.06,5.06,0,0,0-1.92,7,4.71,4.71,0,0,0,4.36,2.6,5,5,0,0,0,2.5-.58l16.28-9.3.07,21.58a5,5,0,0,0,5.11,5.08,5.11,5.11,0,0,0,5.17-5.12l-.06-21.33L104.27,161a5.28,5.28,0,0,0,6.95-2.06,5.15,5.15,0,0,0-2.06-7l-20.7-11.52,0-8.37a39.74,39.74,0,0,0,25.9-15.24l6.88,4L121.09,145a5.17,5.17,0,0,0,5.13,5.28,5.06,5.06,0,0,0,5.1-5.11l-.06-18.72,19,10.84a5.46,5.46,0,0,0,2.7.55,4.79,4.79,0,0,0,4.36-2.43A5.12,5.12,0,0,0,155.44,128.38Z"/><path class="cls-2" d="M101.18,100.77c0,8.89-8.21,16.12-18.41,16.15s-18.48-7.15-18.51-16Z"/><rect class="cls-2" x="64.46" y="72.31" width="7.29" height="20.65" rx="2.4" ry="2.4" transform="translate(-0.25 0.21) rotate(-0.17)"/><rect class="cls-2" x="93.6" y="72.25" width="7.29" height="20.65" rx="2.4" ry="2.4" transform="translate(-0.25 0.29) rotate(-0.17)"/><path class="cls-1" d="M186,52.45h16.15v81.06H186Z"/><path class="cls-1" d="M226,121.87q-11.64-11.58-11.64-29,.05-17.06,11.67-28.7T254.83,52.5q17.33,0,29.75,10.8l-10.8,11.83a29.87,29.87,0,0,0-19-6.48q-10.91.05-17.58,6.8t-6.67,17.28q.05,11.29,6.75,17.93t17.6,6.64a29,29,0,0,0,18.85-6.43l10.8,11.83q-12.37,10.8-29.75,10.8Q237.66,133.45,226,121.87Z"/><path class="cls-1" d="M302.41,64.15A7.83,7.83,0,0,1,308.24,62a8.12,8.12,0,0,1,6,2.19,7.42,7.42,0,0,1,2.16,5.43,7.33,7.33,0,0,1-2.16,5.4,9.25,9.25,0,0,1-11.88,0,7.32,7.32,0,0,1-2.16-5.4A7.42,7.42,0,0,1,302.41,64.15Zm13.5,69.36V92.17H300.79v41.34Z"/><path class="cls-1" d="M326.22,106.5q0-11.88,7.56-19.44t19.44-7.56q11.88,0,18.9,7.56t7,19.44v5.4H341.88a9.53,9.53,0,0,0,3.78,6.75,12.25,12.25,0,0,0,7.56,2.43,22.37,22.37,0,0,0,13.5-4.32l8.64,8.64q-5.94,8.1-22.14,8.1-11.88,0-19.44-7.56T326.22,106.5Zm34.56-12.15a13,13,0,0,0-15.12,0,8,8,0,0,0-3.24,6.75H364A8,8,0,0,0,360.79,94.35Z"/></svg>